<?xml version="1.0" encoding="utf-8"?>
<!-- Generator: Adobe Illustrator 16.0.0, SVG Export Plug-In . SVG Version: 6.00 Build 0)  -->
<!DOCTYPE svg PUBLIC "-//W3C//DTD SVG 1.1//EN" "http://www.w3.org/Graphics/SVG/1.1/DTD/svg11.dtd">
<svg version="1.1" id="Layer_1" xmlns="http://www.w3.org/2000/svg" xmlns:xlink="http://www.w3.org/1999/xlink" x="0px" y="0px"
	 width="20px" height="20px" viewBox="296 386 20 20" enable-background="new 296 386 20 20" xml:space="preserve">
<path fill="#22223B" d="M315.417,390.639c-0.738-0.733-1.932-0.733-2.669,0l-6.795,6.702l-6.7-6.702
	c-0.739-0.733-1.931-0.733-2.669,0c-0.743,0.736-0.748,1.935-0.011,2.677c0.004,0.003,0.007,0.007,0.011,0.011l8.025,8.025
	c0.737,0.741,1.935,0.747,2.676,0.012c0.004-0.004,0.008-0.008,0.012-0.012l8.12-8.025c0.742-0.736,0.747-1.934,0.011-2.677
	C315.424,390.647,315.42,390.643,315.417,390.639z"/>
</svg>
