<?xml version="1.0" encoding="utf-8"?>
<!-- Generator: Adobe Illustrator 16.0.0, SVG Export Plug-In . SVG Version: 6.00 Build 0)  -->
<!DOCTYPE svg PUBLIC "-//W3C//DTD SVG 1.1//EN" "http://www.w3.org/Graphics/SVG/1.1/DTD/svg11.dtd">
<svg version="1.1" id="Layer_1" xmlns="http://www.w3.org/2000/svg" xmlns:xlink="http://www.w3.org/1999/xlink" x="0px" y="0px"
	 width="30px" height="30px" viewBox="5 5 30 30" enable-background="new 5 5 30 30" xml:space="preserve">
<path fill="#22223B" d="M6.5,9.999h27c0.827,0,1.5-1.118,1.5-2.5C35,6.118,34.327,5,33.5,5h-27C5.673,5,5,6.121,5,7.498
	C5.001,8.88,5.673,9.999,6.5,9.999z M33.5,30.002h-27c-0.828,0-1.5,1.12-1.5,2.498C5,33.882,5.673,35,6.5,35h27
	c0.827,0,1.5-1.12,1.5-2.5S34.327,30.002,33.5,30.002z M33.5,17.5h-27C5.673,17.5,5,18.62,5,20s0.672,2.5,1.5,2.5h27
	c0.827,0,1.5-1.12,1.5-2.5S34.327,17.5,33.5,17.5z"/>
</svg>
