<?xml version="1.0" encoding="utf-8"?>
<!-- Generator: Adobe Illustrator 16.0.0, SVG Export Plug-In . SVG Version: 6.00 Build 0)  -->
<!DOCTYPE svg PUBLIC "-//W3C//DTD SVG 1.1//EN" "http://www.w3.org/Graphics/SVG/1.1/DTD/svg11.dtd">
<svg version="1.1" id="Layer_1" xmlns="http://www.w3.org/2000/svg" xmlns:xlink="http://www.w3.org/1999/xlink" x="0px" y="0px"
	 width="40px" height="40px" viewBox="20.5 724.474 40 40" enable-background="new 20.5 724.474 40 40" xml:space="preserve">
<path fill="#22223B" d="M22.537,736.491h35.925c1.102,0,1.996-0.894,1.996-1.996c0-1.102-0.894-1.995-1.996-1.995H22.537
	c-1.102,0-1.996,0.894-1.996,1.995C20.542,735.597,21.436,736.491,22.537,736.491z M58.463,752.458H22.537
	c-1.102,0-1.996,0.895-1.996,1.995c0,1.103,0.894,1.996,1.996,1.996h35.925c1.102,0,1.996-0.894,1.996-1.996
	C60.458,753.352,59.564,752.458,58.463,752.458z M58.463,742.479H22.537c-1.102,0-1.996,0.894-1.996,1.995
	c0,1.103,0.894,1.996,1.996,1.996h35.925c1.102,0,1.996-0.894,1.996-1.996C60.458,743.373,59.564,742.479,58.463,742.479z"/>
</svg>
