<?xml version="1.0" encoding="utf-8"?>
<!-- Generator: Adobe Illustrator 16.0.0, SVG Export Plug-In . SVG Version: 6.00 Build 0)  -->
<!DOCTYPE svg PUBLIC "-//W3C//DTD SVG 1.1//EN" "http://www.w3.org/Graphics/SVG/1.1/DTD/svg11.dtd">
<svg version="1.1" id="Layer_1" xmlns="http://www.w3.org/2000/svg" xmlns:xlink="http://www.w3.org/1999/xlink" x="0px" y="0px"
	 width="40px" height="40px" viewBox="286 376 40 40" enable-background="new 286 376 40 40" xml:space="preserve">
<path fill="#22223B" d="M320,386h-6v-2c0-4.418-3.582-8-8-8c-4.418,0-8,3.582-8,8v2h-6c-1.104,0-2,0.896-2,2v22c0,3.314,2.687,6,6,6
	h20c3.313,0,6-2.686,6-6v-22C322,386.895,321.105,386,320,386z M302,384c0-2.209,1.791-4,4-4c2.209,0,4,1.791,4,4v2h-8V384z
	 M318,410c0,1.104-0.896,2-2,2h-20c-1.104,0-2-0.896-2-2v-20h4v2c0,1.104,0.896,2,2,2s2-0.896,2-2v-2h8v2c0,1.104,0.896,2,2,2
	s2-0.896,2-2v-2h4V410z"/>
</svg>
