<?xml version="1.0" encoding="utf-8"?>
<!-- Generator: Adobe Illustrator 16.0.0, SVG Export Plug-In . SVG Version: 6.00 Build 0)  -->
<!DOCTYPE svg PUBLIC "-//W3C//DTD SVG 1.1//EN" "http://www.w3.org/Graphics/SVG/1.1/DTD/svg11.dtd">
<svg version="1.1" id="Layer_1" xmlns="http://www.w3.org/2000/svg" xmlns:xlink="http://www.w3.org/1999/xlink" x="0px" y="0px"
	 width="40px" height="40px" viewBox="286 376 40 40" enable-background="new 286 376 40 40" xml:space="preserve">
<path fill="#22223B" d="M298.36,380H288c-1.105,0-2,0.896-2,2c0,1.105,0.895,2,2,2h10.359c1.131,3.115,4.573,4.724,7.688,3.593
	c1.67-0.606,2.985-1.922,3.592-3.593h14.361c1.104,0,1.999-0.895,1.999-2c0-1.104-0.896-2-1.999-2H309.64
	c-1.131-3.114-4.572-4.723-7.687-3.592C300.282,377.014,298.967,378.329,298.36,380z M306,382c0,1.105-0.895,2-2,2
	c-1.105,0-2.001-0.895-2.001-2c0-1.104,0.896-2,2.001-2C305.105,380,306,380.896,306,382z M310.361,394H288c-1.105,0-2,0.896-2,2
	c0,1.105,0.895,2,2,2h22.36c1.13,3.115,4.572,4.723,7.687,3.594c1.671-0.605,2.986-1.922,3.593-3.594h2.361
	c1.104,0,1.999-0.895,1.999-2c0-1.104-0.896-2-1.999-2h-2.361c-1.13-3.115-4.572-4.724-7.687-3.593
	C312.282,391.013,310.967,392.33,310.361,394z M317.999,396c0,1.105-0.895,2-1.999,2s-1.999-0.895-1.999-2c0-1.104,0.895-2,1.999-2
	S317.999,394.896,317.999,396z M294.36,408H288c-1.105,0-2,0.896-2,2c0,1.105,0.895,2,2,2h6.36c1.131,3.115,4.572,4.723,7.688,3.592
	c1.67-0.604,2.986-1.92,3.592-3.592h18.361c1.104,0,1.999-0.895,1.999-2c0-1.104-0.896-2-1.999-2H305.64
	c-1.131-3.115-4.572-4.723-7.687-3.592C296.282,405.013,294.967,406.33,294.36,408z M302,410c0,1.105-0.895,2-2,2
	c-1.105,0-2-0.895-2-2c0-1.104,0.895-2,2-2C301.105,408,302,408.896,302,410z"/>
</svg>
