<?xml version="1.0" encoding="utf-8"?>
<!-- Generator: Adobe Illustrator 24.1.1, SVG Export Plug-In . SVG Version: 6.00 Build 0)  -->
<svg version="1.1" id="Capa_1" xmlns="http://www.w3.org/2000/svg" xmlns:xlink="http://www.w3.org/1999/xlink" x="0px" y="0px"
	 viewBox="0 0 290 290" style="enable-background:new 0 0 290 290;" xml:space="preserve">
<style type="text/css">
	.st0{fill:#141414;}
</style>
<g>
	<path class="st0" d="M250.6,0H39.4C17.7,0,0,17.7,0,39.4v211.3C0,272.3,17.7,290,39.4,290h211.3c21.7,0,39.4-17.7,39.4-39.4V39.4
		C290,17.7,272.3,0,250.6,0z M145,215.8c-35.8,0-64.9-29.1-64.9-64.9S109.2,86,145,86s64.9,29.1,64.9,64.9
		C209.9,186.8,180.8,215.8,145,215.8z M265.4,103.1h-58.6c-14.8-17.7-37-29-61.9-29s-47.1,11.3-61.8,29H24.6V46.8
		c0-14.3,11.6-26,26-26h189c14.3,0,26,11.6,26,26L265.4,103.1L265.4,103.1z"/>
	<path class="st0" d="M145,109.3c-23,0-41.7,18.7-41.7,41.7s18.7,41.7,41.7,41.7s41.7-18.7,41.7-41.7S168,109.3,145,109.3z"/>
	<path class="st0" d="M233.5,37.5h-25.1c-5.7,0-10.4,4.7-10.4,10.4V73c0,5.7,4.7,10.4,10.4,10.4h25.1c5.7,0,10.4-4.7,10.4-10.4V47.9
		C243.9,42.2,239.2,37.5,233.5,37.5z"/>
</g>
</svg>
