<?xml version="1.0" encoding="utf-8"?>
<!-- Generator: Adobe Illustrator 24.1.1, SVG Export Plug-In . SVG Version: 6.00 Build 0)  -->
<svg version="1.1" id="Capa_1" xmlns="http://www.w3.org/2000/svg" xmlns:xlink="http://www.w3.org/1999/xlink" x="0px" y="0px"
	 viewBox="0 0 290 290" style="enable-background:new 0 0 290 290;" xml:space="preserve">
<style type="text/css">
	.st0{fill:#141414;}
</style>
<path class="st0" d="M205.8,0h-15.7C146.5,0,111,35.5,111,79.1v33.4H84.2c-2.8,0-5,2.2-5,5v40c0,2.8,2.2,5,5,5H111V285
	c0,2.8,2.2,5,5,5h40c2.8,0,5-2.2,5-5V162.5h39.8c2.8,0,5-2.2,5-5v-40c0-2.8-2.2-5-5-5H161V79.1c0-16,13.1-29.1,29.1-29.1h15.7
	c2.8,0,5-2.2,5-5V5C210.8,2.2,208.6,0,205.8,0z"/>
</svg>
