<?xml version="1.0" encoding="utf-8"?>
<!-- Generator: Adobe Illustrator 24.1.1, SVG Export Plug-In . SVG Version: 6.00 Build 0)  -->
<svg version="1.1" id="Capa_1" xmlns="http://www.w3.org/2000/svg" xmlns:xlink="http://www.w3.org/1999/xlink" x="0px" y="0px"
	 viewBox="0 0 321.7 321.7" style="enable-background:new 0 0 321.7 321.7;" xml:space="preserve">
<style type="text/css">
	.st0{fill:#FFFFFF;}
</style>
<path class="st0" d="M320.5,70.4c-1.2-1.1-3-1.2-4.3-0.3c-5.9,3.9-13.9,5.9-20.5,6.9c7.9-6.4,17.1-16.6,17.1-29.7
	c0-1.3-0.7-2.5-1.9-3.1c-1.2-0.6-2.6-0.5-3.6,0.3c-12,8.7-29.2,13.3-35.5,14.8c-4.4-7.3-19.7-28.8-46.2-28.8c-1.5,0-3,0.1-4.5,0.2
	c-32.9,3-48.8,22.2-56.4,37.8c-4.8,9.9-6.9,19.4-7.8,25.7c-5.2-4.5-14.3-11.5-27.8-18.4C108.5,65.3,73,52.7,21.2,52.7
	c-5,0-10.2,0.1-15.4,0.4c-1.2,0.1-2.2,0.7-2.8,1.7S2.4,57,2.9,58.1c11,22.9,34.8,36.4,50.3,43.1c-8.5,2.2-17.5,6.6-20.4,13.5
	c-1.4,3.5-1.8,9,4.6,15.4c9.4,9.3,20.5,15,30.3,18.4c-7.6,1.4-13.8,3.7-15.7,7.6c-0.8,1.5-1.6,4.5,1.1,8.2c13,17.9,44.2,24.8,58,26
	c-1.8,4.2-5.4,10.9-12.5,17.6c-15.1,14.3-38.8,21.9-68.7,21.9c0,0,0,0,0,0c-8.1,0-16.8-0.6-25.9-1.6c-1.5-0.2-2.9,0.6-3.6,2
	c-0.6,1.4-0.3,3,0.8,4c39.4,37.3,84.1,56.9,129.3,57c0,0,0,0,0,0c49.8,0,98.5-24.5,130.4-65.5c28.4-36.5,39.2-80.2,30.1-120.4
	c6.1-2.6,19.7-10.4,30.4-30.6C322,73.3,321.7,71.5,320.5,70.4z"/>
</svg>
